<?xml version="1.0" encoding="utf-8"?>
<!-- Generator: Adobe Illustrator 27.0.0, SVG Export Plug-In . SVG Version: 6.00 Build 0)  -->
<svg version="1.1" xmlns="http://www.w3.org/2000/svg" xmlns:xlink="http://www.w3.org/1999/xlink" x="0px" y="0px"
	 viewBox="0 0 595.28 841.89" style="enable-background:new 0 0 595.28 841.89;" xml:space="preserve">
<style type="text/css">
	.st0{fill:#FFFFFF;}
</style>
<g id="Layer_1">
	<g>
		<path class="st0" d="M510.37,355.87c3.83,0.13,8.18,0.24,12.01,0.37c0.79,0.03,1.62,0.06,2.31,0.45c1.48,0.83,1.73,2.8,1.81,4.49
			c0.64,13.52,1.29,27.04,1.93,40.56c0.29,5.99,0.7,12.37,4.22,17.22c0.39,0.54,0.83,1.08,1.03,1.72c0.2,0.64,0.08,1.44-0.47,1.83
			c-0.48,0.34-1.12,0.27-1.7,0.2l-8.41-1.13c-1.93-0.26-3.44-1.8-3.65-3.74l-1.96-18.08c-0.13-1.16-0.28-2.39-0.97-3.32
			c-1.23-1.67-3.63-1.8-5.71-1.79c-1.91,0.01-4.11,0.17-5.23,1.72c-0.87,1.2-1,3.03-1.31,4.48c-1.18,5.6-2.96,9.58-5.42,14.63
			c-1.24,2.53-4.07,2.45-6.49,0.99c-1.43-0.86-3.11-1.36-3.12-3.03c-0.01-1.67,0.53-3.28,1.07-4.86c2.1-6.13,4.21-12.26,6.31-18.39
			C500.65,378.47,504.35,366.69,510.37,355.87"/>
		<g>
			<path d="M510.37,357.12c2.23,0.08,4.46,0.14,6.69,0.21c1.05,0.03,2.1,0.06,3.15,0.09c1.09,0.03,2.38-0.11,3.42,0.2
				c1.9,0.55,1.62,3.52,1.69,5.05c0.11,2.39,0.23,4.78,0.34,7.17c0.47,9.81,0.93,19.62,1.4,29.43c0.2,4.22,0.3,8.5,1.23,12.64
				c0.44,1.94,1.09,3.85,2.01,5.62c0.44,0.84,0.97,1.62,1.52,2.39c0.21,0.3,0.76,0.89,0.69,1.27c-0.09,0.46-0.57,0.32-0.99,0.27
				c-1.81-0.2-3.61-0.48-5.42-0.73c-1.87-0.25-4.36-0.15-5.2-2.24c-0.43-1.07-0.38-2.44-0.5-3.57c-0.24-2.25-0.49-4.49-0.73-6.74
				c-0.23-2.15-0.47-4.31-0.7-6.46c-0.16-1.5-0.2-3.18-0.7-4.6c-1.29-3.65-5.51-3.94-8.82-3.68c-1.64,0.13-3.36,0.52-4.52,1.77
				c-1.2,1.29-1.43,3.12-1.74,4.78c-0.77,4.13-2.22,8.09-3.98,11.89c-0.67,1.45-1.31,4.05-3.16,4.32c-1.6,0.24-3.16-0.86-4.47-1.62
				c-0.84-0.49-1.12-0.82-1.04-1.83c0.1-1.17,0.48-2.31,0.85-3.42c0.79-2.35,1.61-4.69,2.41-7.03c1.6-4.66,3.21-9.32,4.79-13.98
				c2.94-8.65,5.81-17.36,9.7-25.64c0.99-2.1,2.04-4.16,3.16-6.18c0.78-1.41-1.38-2.67-2.16-1.26c-4.73,8.54-8.09,17.72-11.25,26.93
				c-1.63,4.76-3.25,9.53-4.88,14.29c-0.86,2.51-1.73,5.03-2.59,7.54c-0.82,2.39-1.87,4.82-2.35,7.3c-0.37,1.91-0.36,3.69,1.31,4.94
				c1.3,0.97,3.02,1.94,4.61,2.3c1.64,0.38,3.42,0.17,4.71-1c1.49-1.35,2.22-3.74,3.03-5.54c1.76-3.95,3.09-7.99,3.88-12.25
				c0.17-0.92,0.31-2.03,0.93-2.77c0.58-0.69,1.56-0.9,2.41-1.01c1.69-0.21,3.98-0.32,5.53,0.48c1.74,0.88,1.63,3.38,1.81,5.11
				c0.24,2.25,0.49,4.5,0.73,6.74c0.26,2.38,0.52,4.77,0.78,7.15c0.16,1.46,0.17,3.13,0.86,4.45c1.29,2.48,3.69,2.84,6.16,3.17
				c2.13,0.29,4.27,0.58,6.4,0.86c1.41,0.18,2.91-0.1,3.47-1.6c0.77-2.1-1.02-3.72-1.98-5.37c-2.2-3.78-2.75-8.27-3.02-12.56
				c-0.66-10.28-1-20.58-1.49-30.87c-0.13-2.64-0.25-5.28-0.38-7.91c-0.1-2.2-0.02-4.52-0.47-6.69c-0.38-1.82-1.5-3.38-3.39-3.79
				c-2.1-0.45-4.45-0.26-6.59-0.33c-2.38-0.07-4.76-0.14-7.14-0.22C508.76,354.56,508.76,357.06,510.37,357.12L510.37,357.12z"/>
		</g>
	</g>
	<g>
		<g>
			<path class="st0" d="M103.99,355.41c0.72,15.6-0.48,31.28-3.57,46.59c-1.03,5.09-2.57,10.61-6.87,13.54
				c7.63,1.06,15.35,1.47,23.05,1.23c4.91-0.16,10.03-0.64,14.21-3.23c4.34-2.69,7.21-7.61,7.42-12.71
				c0.21-5.1-2.24-10.24-6.35-13.28c4.9-2.89,8.48-7.93,9.59-13.51c0.51-2.55,0.5-5.28-0.59-7.63c-1.82-3.93-6.15-5.98-10.26-7.34
				c-8.44-2.8-17.38-4.07-26.27-3.7"/>
			<g>
				<path d="M102.74,355.41c0.38,8.45,0.22,16.92-0.52,25.35c-0.71,8.13-1.69,16.49-3.81,24.39c-0.94,3.51-2.42,7.13-5.49,9.3
					c-0.76,0.54-0.88,2.12,0.3,2.28c5.47,0.75,10.98,1.21,16.5,1.32c5.04,0.1,10.26,0.15,15.22-0.92c4.39-0.95,8.33-3.12,11.07-6.72
					c2.5-3.3,3.83-7.55,3.42-11.69c-0.49-4.9-2.99-9.28-6.9-12.26c0,0.72,0,1.44,0,2.16c3.49-2.1,6.38-5.15,8.23-8.78
					c1.91-3.75,3.04-8.43,1.79-12.56c-1.16-3.82-4.36-6.37-7.87-7.97c-4.24-1.93-8.89-3.11-13.45-3.96
					c-5.56-1.04-11.21-1.45-16.86-1.24c-1.6,0.06-1.61,2.56,0,2.5c8.9-0.33,17.84,0.89,26.28,3.78c3.12,1.07,6.57,2.56,8.47,5.41
					c2.24,3.35,1.57,7.81,0.14,11.36c-1.56,3.88-4.42,7.16-7.99,9.31c-0.88,0.53-0.73,1.6,0,2.16c6.3,4.79,7.49,13.91,2.82,20.23
					c-5.33,7.21-15.59,6.82-23.62,6.71c-5.54-0.08-11.08-0.49-16.57-1.24c0.1,0.76,0.2,1.52,0.3,2.28
					c6.11-4.31,7.2-12.49,8.39-19.32c1.52-8.76,2.45-17.63,2.76-26.52c0.18-5.12,0.14-10.25-0.09-15.37
					C105.17,353.8,102.67,353.79,102.74,355.41L102.74,355.41z"/>
			</g>
		</g>
		<g>
			<path class="st0" d="M119.03,368.3c-0.57,3.52-0.32,5.12-1.1,8.6c-0.17,0.77-0.27,3.51-0.32,3.91c-0.14,1.04,0.91,1.03,1.7,1.21
				c1.4,0.33,3.14,0.13,4.4-0.55c1.26-0.68,2.22-1.53,3.11-2.66c1.02-1.31,1.86-3.54,1.74-5.19c-0.14-1.93-1.68-3.52-3.4-4.4
				S120.96,368.55,119.03,368.3"/>
			<g>
				<path d="M117.83,367.96c-0.26,1.67-0.4,3.35-0.55,5.03c-0.13,1.47-0.49,2.89-0.66,4.35c-0.12,1.06-0.15,2.14-0.23,3.2
					c-0.11,1.5,0.74,2.32,2.16,2.6c1.6,0.31,3.17,0.42,4.74-0.13c1.61-0.57,3.05-1.67,4.14-2.97c2.03-2.41,3.35-6.2,1.52-9.09
					c-0.95-1.5-2.51-2.71-4.21-3.25c-1.84-0.59-3.82-0.42-5.72-0.65c-0.67-0.08-1.25,0.63-1.25,1.25c0,0.74,0.58,1.17,1.25,1.25
					c1.33,0.16,2.69,0.1,4.02,0.32c1.24,0.2,2.32,0.76,3.2,1.66c0.82,0.84,1.22,1.88,1.05,3.06c-0.17,1.21-0.7,2.46-1.43,3.44
					c-1.56,2.07-3.84,3.26-6.43,2.74c-0.22-0.04-0.44-0.07-0.66-0.13c-0.48-0.13-0.07-0.02-0.09-0.01
					c-0.04-0.02-0.07-0.04-0.11-0.06c0.13,0.07,0.21,0.17,0.24,0.3c0.13,0.08,0.01,0.15,0.06-0.11c0.01-0.04,0.01-0.09,0.01-0.13
					c0.01-0.18,0.02-0.35,0.03-0.53c0.06-0.94,0.07-1.89,0.21-2.82c-0.04,0.26,0,0.05,0.01-0.01c0.05-0.22,0.1-0.45,0.14-0.67
					c0.08-0.42,0.16-0.84,0.22-1.26c0.11-0.71,0.2-1.43,0.26-2.15c0.14-1.52,0.24-3.04,0.48-4.56c0.1-0.67-0.17-1.34-0.87-1.54
					C118.77,366.93,117.93,367.29,117.83,367.96L117.83,367.96z"/>
			</g>
		</g>
		<g>
			<path class="st0" d="M115.05,394.09c-0.36,3.16-0.69,8.51-1.92,11.44c1.62,0.78,4.07,0.21,5.87,0.21c1.8-0.01,3.28-1.23,4.55-2.5
				s1.5-5.31,0.64-6.89c-1.23-2.26-2.09-2.12-4.04-3.11c-0.63-0.32-2.15-0.34-2.85-0.42c-0.7-0.08-1.48,0.15-1.87,0.74"/>
			<g>
				<path d="M113.8,394.09c-0.42,3.67-0.46,7.64-1.87,11.1c-0.19,0.46,0.12,1.21,0.57,1.41c1.25,0.56,2.56,0.63,3.92,0.55
					c1.21-0.08,2.54-0.05,3.73-0.3c1.35-0.28,2.53-1.12,3.54-2.02c0.81-0.72,1.39-1.43,1.77-2.46c0.65-1.78,0.76-4.14,0.14-5.95
					c-0.34-0.97-0.98-1.96-1.75-2.64c-0.68-0.59-1.46-0.92-2.28-1.28c-0.54-0.24-1.06-0.54-1.65-0.67
					c-0.63-0.14-1.28-0.18-1.91-0.23c-1.47-0.11-2.69,0.05-3.64,1.3c-0.41,0.54-0.08,1.4,0.45,1.71c0.64,0.38,1.3,0.09,1.71-0.45
					c0.26-0.34,1.45-0.07,1.81-0.04c0.34,0.03,0.67,0.05,0.99,0.13c0.09,0.02,0.18,0.04,0.27,0.07c-0.07-0.02-0.25-0.12,0.09,0.05
					c0.2,0.1,0.4,0.19,0.61,0.28c0.6,0.27,1.25,0.49,1.77,0.88c-0.14-0.11,0.16,0.15,0.19,0.18c0.08,0.08,0.18,0.18,0.24,0.26
					c0.15,0.18,0.28,0.4,0.4,0.6c0.05,0.08,0.31,0.57,0.23,0.37c0.52,1.22,0.42,2.85,0.08,4.17c-0.08,0.3-0.18,0.61-0.26,0.77
					c-0.07,0.15-0.16,0.29-0.26,0.42c0.13-0.17-0.24,0.22-0.32,0.3c-0.68,0.65-1.43,1.31-2.32,1.64c-0.98,0.37-2.19,0.26-3.22,0.34
					c-0.96,0.07-2.16,0.24-3.07-0.17c0.19,0.47,0.38,0.94,0.57,1.41c0.75-1.84,1.04-3.85,1.31-5.8c0.27-1.98,0.43-3.98,0.66-5.97
					c0.08-0.67-0.63-1.25-1.25-1.25C114.31,392.84,113.87,393.42,113.8,394.09L113.8,394.09z"/>
			</g>
		</g>
	</g>
	<g>
		<path class="st0" d="M70.71,334.68c-6.04,0.96-12.19-0.19-18.27-0.88s-12.52-0.86-18,1.86c-6.66,3.3-10.7,10.24-13.48,17.14
			c-4.05,10.05-6.27,20.84-6.51,31.68c-0.16,7.38,0.67,15.04,4.34,21.44c4.74,8.25,14.23,13.53,23.73,13.22s18.63-6.22,22.81-14.76
			c1.41-2.88,2.06-6.86-0.42-8.9c-1.93-1.58-4.85-1.12-7.03,0.08s-3.99,3.01-6.19,4.16c-5.36,2.78-12.74,0.64-15.77-4.58
			c-2.04-3.52-2.15-7.82-1.9-11.88c0.54-8.63,2.47-17.16,5.69-25.18c1.18-2.92,2.62-5.9,5.14-7.79c2.55-1.9,5.86-2.44,9.04-2.51
			c3.18-0.07,6.38,0.27,9.53-0.15c3.15-0.41,6.38-1.72,8.18-4.34c1.8-2.62,1.6-6.72-1.01-8.53"/>
		<g>
			<path d="M70.38,333.47c-11.33,1.69-22.92-3.85-34.07,0.06c-9.6,3.36-14.47,13-17.72,21.97c-3.82,10.58-5.81,22.08-5.36,33.33
				c0.22,5.35,1.13,10.71,3.39,15.59c1.99,4.29,5.1,7.92,8.93,10.67c7.59,5.46,17.61,6.83,26.29,3.26c4.19-1.72,8-4.41,10.93-7.87
				c2.67-3.15,5.41-7.4,5.03-11.71c-0.18-2.1-1.25-4.03-3.19-4.97c-2.06-0.99-4.49-0.64-6.51,0.24c-2.33,1.02-4.15,2.86-6.32,4.16
				c-1.86,1.11-3.95,1.58-6.11,1.43c-4.31-0.29-8.16-3.04-9.59-7.14c-1.76-5.06-0.87-11.13-0.07-16.3
				c0.88-5.64,2.35-11.19,4.39-16.53c0.92-2.41,1.93-4.94,3.63-6.93c1.68-1.96,3.95-2.99,6.45-3.44c5.45-0.99,11.12,0.64,16.46-1.25
				c4.15-1.47,7.6-5,7.03-9.68c-0.24-1.95-1.17-3.56-2.74-4.73c-1.29-0.96-2.54,1.21-1.26,2.16c1.54,1.15,1.84,3.34,1.37,5.09
				c-0.56,2.04-2.25,3.49-4.11,4.36c-4.86,2.28-10.47,0.82-15.62,1.38c-4.86,0.53-8.75,2.69-11.21,7
				c-2.54,4.45-4.08,9.68-5.32,14.63c-1.29,5.16-2.11,10.48-2.36,15.79c-0.22,4.6,0.21,9.57,3.24,13.27
				c2.43,2.96,6.24,4.66,10.04,4.82c1.91,0.08,3.83-0.27,5.58-1.04c2.17-0.95,3.91-2.58,5.87-3.86c1.78-1.16,4.55-2.38,6.53-0.94
				c1.6,1.16,1.51,3.42,1.09,5.13c-1.03,4.13-4.15,7.84-7.35,10.51c-6.9,5.76-16.36,7.44-24.78,4.28
				c-4.13-1.55-7.84-4.19-10.69-7.56c-3.18-3.76-4.95-8.47-5.83-13.26c-0.94-5.12-0.89-10.43-0.5-15.61
				c0.4-5.45,1.32-10.85,2.72-16.13c1.32-4.97,3-9.92,5.29-14.53c2.02-4.07,4.64-8.06,8.37-10.76c8.93-6.49,20.46-2.85,30.49-2.22
				c2.77,0.18,5.51,0.1,8.25-0.31C72.63,335.65,71.96,333.24,70.38,333.47L70.38,333.47z"/>
		</g>
	</g>
	<g>
		<path class="st0" d="M91.01,358.64l12.72,0.43c0.75,0.03,1.51,0.24,2.09,0.72c1.28,1.05,0.81,2.3,0.36,3.4
			c-1.89,4.59-3.78,9.19-5.67,13.78c-7.39,17.97-14.86,36.09-26.3,51.88c-2.83,3.9-6.51,7.15-10.89,9.17
			c-8.27,3.82-14.01,2.06-21.9-3.05c-0.54-0.35-3.35-2.5-4.02-3.22c-2.64-2.82,1.01-6.78,4.86-6.38c9.62,1.01,13-1.86,19.5-6.52
			c3.45-2.47,5.01-4.34,7.02-8.13c2.86-5.41,3.92-10.77,3.25-16.74c-1.23-10.97-3.67-21.8-7.26-32.24
			c-0.33-0.97-0.34-2.05,0.13-2.97c0.93-1.84,2.68-1.58,4.2-1.28c2.45,0.48,4.89,0.96,7.34,1.45c1.13,0.22,2.35,0.49,3.13,1.34
			c0.74,0.8,0.94,1.96,1.1,3.04c0.96,6.38,1.91,12.77,2.87,19.15C86.46,375,88.1,366.11,91.01,358.64"/>
		<g>
			<path d="M91.01,359.89c4,0.13,8.01,0.27,12.01,0.4c0.93,0.03,2.41,0.07,2.36,1.32c-0.04,0.91-0.74,2.03-1.07,2.85
				c-0.54,1.3-1.07,2.6-1.61,3.91c-1.99,4.85-3.98,9.7-5.99,14.54c-3.83,9.22-7.81,18.41-12.47,27.24
				c-2.35,4.46-4.88,8.82-7.65,13.03c-2.57,3.91-5.21,7.81-8.93,10.73c-3.43,2.69-7.82,4.78-12.24,4.91
				c-4.37,0.13-8.35-1.82-11.99-4.06c-1.33-0.82-2.57-1.72-3.78-2.7c-1.01-0.82-2.38-1.78-1.71-3.26c0.73-1.63,2.66-2.3,4.32-2.18
				c2.1,0.15,4.17,0.3,6.27,0.05c3.32-0.38,6.31-1.61,9.11-3.41c3.07-1.97,6.41-4.12,8.85-6.86c2.79-3.13,4.76-7.24,5.91-11.25
				c1.35-4.72,1.16-9.41,0.52-14.23c-0.68-5.11-1.6-10.19-2.79-15.21c-0.6-2.53-1.26-5.05-1.99-7.55c-0.35-1.21-0.72-2.42-1.11-3.62
				c-0.39-1.21-0.99-2.47-1.19-3.72c-0.46-2.81,2.17-2.29,3.91-1.94c2.53,0.5,5.23,0.78,7.69,1.57c2.37,0.76,2.17,4.09,2.48,6.14
				c0.41,2.7,0.81,5.4,1.22,8.1c0.41,2.7,0.81,5.4,1.22,8.1c0.2,1.36,2.02,1,2.41,0c3-7.78,4.46-16.06,7.46-23.84
				c0.58-1.5-1.84-2.15-2.41-0.66c-3,7.78-4.46,16.06-7.46,23.84c0.8,0,1.61,0,2.41,0c-0.88-5.89-1.77-11.79-2.65-17.68
				c-0.34-2.26-0.55-4.74-2.81-5.94c-1.01-0.54-2.15-0.72-3.26-0.94c-1.55-0.31-3.1-0.61-4.65-0.92c-1.88-0.37-4.23-1.17-6.04-0.15
				c-1.96,1.11-2.37,3.56-1.78,5.56c0.79,2.72,1.77,5.39,2.54,8.13c0.75,2.66,1.42,5.33,2.03,8.03c1.24,5.53,2.32,11.21,2.75,16.87
				c0.4,5.25-0.73,10.34-3.19,15c-0.97,1.85-2.06,3.63-3.53,5.13c-1.51,1.54-3.3,2.74-5.04,3.99c-2.93,2.1-5.92,4.09-9.52,4.79
				c-2.13,0.41-4.33,0.38-6.48,0.2c-2.11-0.18-4.03,0.06-5.74,1.42c-1.38,1.1-2.35,2.8-2.08,4.61c0.26,1.71,1.54,2.76,2.8,3.77
				c3.2,2.57,6.74,4.78,10.61,6.18c4.3,1.55,8.81,1.41,13.07-0.19c4.47-1.68,8.41-4.47,11.54-8.07c3.43-3.94,6.21-8.56,8.87-13.04
				c5.54-9.33,10.09-19.21,14.33-29.18c2.14-5.04,4.22-10.11,6.3-15.17c1.13-2.76,2.27-5.51,3.4-8.27c0.76-1.85,2.37-4.36,1.26-6.38
				c-1.32-2.38-4.29-2.1-6.61-2.18c-2.71-0.09-5.42-0.18-8.13-0.27c-0.59-0.02-1.17-0.04-1.76-0.06
				C89.4,357.33,89.4,359.83,91.01,359.89L91.01,359.89z"/>
		</g>
	</g>
	<g>
		<path class="st0" d="M298.15,412.93c1.22-8.4,2.45-16.8,3.67-25.21c0.12-0.84,0.31-1.79,1.01-2.26c0.83-0.55,2.03-0.14,2.66,0.64
			c0.63,0.77,0.84,1.8,1.03,2.78c0.79,4.09,1.58,8.19,2.38,12.28c0.59,3.07,0.63,9.39,3.46,10.71c2.97,1.39,5.77,1.42,8.18-0.58
			c1.7-1.42,2.13-3.82,2.44-6.01c2.33-16.35,4.95-31.86,7.28-48.22c0.18-1.25,1.54-6.24,0.32-6.57c-2.3-0.64-4.14-1.05-6.27-0.43
			c-2.13,0.62-3.72,2.47-4.58,4.51c-0.86,2.04-1.09,4.29-1.31,6.49c-0.91,9.04-1.81,18.07-2.72,27.11
			c-1.83-7.26-3.65-14.53-5.48-21.79c-0.77-3.07-1.82-6.51-4.65-7.94c-2.94-1.5-5.81-1.47-8.62,0.33
			c-3.83,2.46-3.94,10.35-4.5,14.86c-1.14,9.18-2.29,18.36-3.43,27.53c-0.28,2.24-0.54,4.62,0.38,6.69
			C290.71,410.77,295.18,411.74,298.15,412.93"/>
		<g>
			<path d="M299.35,413.27c1.01-6.92,2.01-13.84,3.02-20.76c0.24-1.63,0.38-3.32,0.73-4.93c0.11-0.51,0.16-1.16,0.81-1.07
				c0.72,0.1,0.99,1.02,1.16,1.6c0.89,3.1,1.28,6.44,1.89,9.61c0.47,2.44,0.89,4.86,1.22,7.32c0.27,2.03,0.57,4.22,1.63,6.01
				c1.17,1.99,3.51,2.81,5.71,3.02c2.57,0.25,5.29-0.82,6.84-2.93c1.65-2.26,1.78-5.31,2.17-7.97c0.49-3.39,1-6.78,1.51-10.17
				c1.02-6.7,2.08-13.4,3.11-20.11c0.9-5.86,1.58-11.78,2.72-17.59c0.29-1.49,0.96-3.82,0.06-5.22c-0.61-0.96-1.98-1.08-3-1.29
				c-1.37-0.28-2.75-0.39-4.13-0.13c-7.32,1.34-7.43,10.34-8.01,16.1c-0.78,7.8-1.56,15.61-2.35,23.41
				c0.82-0.11,1.64-0.22,2.46-0.33c-1.06-4.2-2.11-8.39-3.17-12.59c-0.97-3.86-1.75-7.84-3-11.62c-1-3.04-2.61-5.55-5.67-6.78
				c-3.18-1.28-7-0.82-9.61,1.5c-1.92,1.72-2.73,4.46-3.21,6.9c-0.53,2.68-0.69,5.41-1.01,8.12c-1,8.45-2.11,16.89-3.16,25.33
				c-0.46,3.67-1.52,8.33,1.34,11.34c2.18,2.29,5.57,2.99,8.4,4.1c1.5,0.59,2.15-1.83,0.66-2.41c-2.24-0.88-4.84-1.42-6.76-2.95
				c-2.53-2.01-1.68-5.82-1.33-8.6c0.94-7.54,1.88-15.08,2.82-22.62c0.35-2.79,0.64-5.58,0.95-8.38c0.27-2.38,0.59-4.95,1.66-7.13
				c1.17-2.4,3.74-3.73,6.42-3.4c3.33,0.41,5.1,2.64,6.09,5.64c1.25,3.78,2.03,7.76,3,11.62c1.06,4.2,2.11,8.39,3.17,12.59
				c0.37,1.45,2.32,1,2.46-0.33c0.66-6.57,1.32-13.14,1.98-19.71c0.31-3.14,0.54-6.31,0.97-9.44c0.35-2.6,1.1-5.52,3.39-7.11
				c1.13-0.79,2.53-1,3.88-0.88c0.66,0.06,1.31,0.21,1.95,0.36c0.2,0.05,0.71,0.07,0.77,0.09c-0.23-0.11-0.1-0.25-0.08,0.04
				c0.11,1.65-0.43,3.3-0.72,4.91c-1.08,6.02-1.79,12.13-2.72,18.18c-0.99,6.39-1.99,12.77-2.96,19.16c-0.48,3.15-0.95,6.3-1.4,9.46
				c-0.34,2.34-0.38,5.53-2.36,7.18c-1.83,1.52-5.27,1.71-7.15,0.08c-1.32-1.14-1.54-3.59-1.78-5.19
				c-0.78-5.14-1.74-10.23-2.72-15.33c-0.47-2.42-1.05-5.97-4.25-6c-3.25-0.03-3.24,4.13-3.57,6.39
				c-1.08,7.41-2.16,14.83-3.24,22.24C296.71,414.17,299.12,414.85,299.35,413.27L299.35,413.27z"/>
		</g>
	</g>
	<g>
		<path class="st0" d="M342.06,351.22c0.68,12.22,1.64,25.36,4.23,37.33c4.36-10.97,8.72-21.95,13.09-32.92
			c0.88-2.22,1.93-7.42,4.22-8.1c2.43-0.72,5.23-0.6,7.28,0.51c1.37,0.74,1.8,3.68,1.15,5.28c-0.68,1.66-1.6,2.9-2.17,4.35
			c-4,10.27-8,20.55-12,30.82c-2.32,5.95-4.64,11.92-7.53,17.61c-1.17,2.31-2.97,4.9-5.57,4.79c-2.27-0.1-3.87-2.28-4.75-4.38
			c-1.66-3.98-2.03-8.36-2.39-12.65c-1.11-13.46-2.22-26.91-3.33-40.37c-0.06-0.72-0.11-1.49,0.24-2.12
			c0.54-0.96,2.03-1.26,3.13-1.18C339.44,350.33,341.36,350.27,342.06,351.22"/>
		<g>
			<path d="M340.81,351.22c0.7,12.61,1.62,25.28,4.27,37.66c0.28,1.33,2,1.04,2.41,0c2.52-6.34,5.04-12.67,7.56-19.01
				c2.16-5.42,4.56-10.81,6.35-16.37c0.46-1.44,1-3.92,2.44-4.74c1.49-0.84,5.82-0.83,6.8,0.81c1.35,2.26-0.51,4.61-1.47,6.57
				c-1.41,2.88-2.4,6.02-3.57,9c-2.39,6.13-4.77,12.27-7.16,18.4c-2.38,6.12-4.67,12.29-7.42,18.25c-1.09,2.35-2.15,5.39-4.23,7.08
				c-2.43,1.98-4.58-0.49-5.56-2.67c-1.23-2.74-1.72-5.83-2.04-8.79c-0.34-3.15-0.55-6.31-0.81-9.47
				c-0.61-7.38-1.22-14.77-1.83-22.15c-0.31-3.77-0.62-7.55-0.93-11.32c-0.06-0.67-0.3-1.64-0.06-2.28
				c0.22-0.59,0.88-0.72,1.47-0.76c1.05-0.08,3.4-0.17,4.15,0.66c1.08,1.2,2.84-0.57,1.77-1.77c-0.93-1.03-2.34-1.19-3.65-1.29
				c-1.41-0.11-2.86-0.26-4.2,0.32c-3.11,1.34-1.95,5.43-1.73,8.06c0.64,7.71,1.27,15.42,1.91,23.14c0.31,3.77,0.62,7.55,0.93,11.32
				c0.28,3.43,0.49,6.9,1.19,10.28c0.6,2.92,1.56,6.33,3.83,8.42c2.12,1.95,5,2.01,7.2,0.17c2.37-1.97,3.59-5.18,4.84-7.91
				c1.51-3.29,2.88-6.64,4.21-10.01c2.83-7.15,5.59-14.33,8.37-21.5c1.37-3.53,2.75-7.05,4.12-10.58c0.61-1.56,1.19-3.09,1.99-4.56
				c0.74-1.36,1.5-2.7,1.59-4.28c0.15-2.57-0.92-4.68-3.38-5.54c-2.29-0.81-5.89-1.01-7.96,0.47c-2,1.43-2.71,4.34-3.41,6.55
				c-1.11,3.48-2.61,6.85-3.96,10.24c-3.26,8.19-6.51,16.38-9.77,24.57c0.8,0,1.61,0,2.41,0c-2.6-12.16-3.49-24.6-4.18-36.99
				C343.22,349.62,340.72,349.61,340.81,351.22L340.81,351.22z"/>
		</g>
	</g>
	<g>
	</g>
	<g>
		<path class="st0" d="M490.14,355.43c-7.62,0.33-14.86-1.18-21.39,1.9c-4.27,2.01-6.86,6.35-9.16,10.47
			c-2.45,4.36-4.12,9.15-4.99,14.07c-1.16,6.58-0.19,13,1.55,19.45c0.65,2.42,1.34,4.91,2.92,6.85c1.81,2.23,4.4,4.14,7.04,5.27
			c3.51,1.51,6.06,1.88,9.87,1.53c4.03-0.37,8.17-3,10.47-6.34c2.3-3.34,3.26-6.98,3.57-11.02c0.31-4.04,0.83-7.93,0.43-11.96
			c-0.2-2-0.53-4.24-2.15-5.42c-1.27-0.92-2.98-0.91-4.54-0.78c-1.91,0.16-3.82,0.45-5.69,0.86c-1.19,0.26-2.41,0.59-3.37,1.35
			s-1.67,1.05-1.28,2.21c0.37,1.12,1.14,3.54,2.74,3.18c1.15-0.25,3.37-0.43,4.25,0.35c1,0.89,1.15,3.91,0.94,5.23
			s-1.45,3.9-2.43,4.81c-3.09,2.87-9.27,1.77-12.04-1.4c-1.63-1.87-1.89-5.44-2.09-7.91c-0.46-5.75,1.43-11.65,5.15-16.05
			c3.72-4.4,9.22-7.26,14.96-7.77c1.44-0.13,2.95-0.13,4.25-0.76c1.49-0.73,2.53-2.3,2.62-3.96
			C491.86,357.93,492.26,355.43,490.14,355.43"/>
		<g>
			<path d="M490.14,354.18c-8.62,0.34-18.91-1.86-25.81,4.74c-3.03,2.9-5.24,6.85-7.05,10.59c-2.04,4.23-3.48,8.8-4.11,13.47
				c-0.69,5.06-0.19,10.16,0.9,15.13c0.98,4.45,2.03,9.04,5.38,12.33c6.09,5.98,16.4,8.15,23.72,3.12
				c3.62-2.49,6.02-6.23,7.19-10.43c0.61-2.2,0.82-4.45,1.01-6.72c0.22-2.54,0.48-5.08,0.48-7.63c0-3.75-0.18-9.19-4.61-10.39
				c-2.13-0.58-4.54-0.12-6.67,0.2c-2.2,0.33-4.66,0.65-6.5,1.99c-1.51,1.1-2.37,2.12-1.72,4.04c0.45,1.32,1.09,2.87,2.44,3.48
				c0.76,0.34,1.42,0.18,2.21,0.07c0.67-0.1,1.9-0.29,2.49,0.13c0.89,0.63,0.77,3.05,0.64,4.01c-0.19,1.42-1.05,3.27-2.1,4.25
				c-1.2,1.13-3.02,1.39-4.61,1.27c-1.7-0.13-3.45-0.76-4.79-1.82c-1.49-1.19-1.97-2.94-2.27-4.75c-0.69-4.21-0.49-8.49,1.04-12.49
				c1.6-4.16,4.57-7.73,8.35-10.08c1.81-1.12,3.75-1.97,5.81-2.52c2.21-0.59,4.49-0.47,6.7-0.99c3.83-0.9,5.31-4.76,4.76-8.37
				C492.78,355.22,491.74,354.28,490.14,354.18c-1.61-0.1-1.6,2.4,0,2.5c0.86,0.05,0.44,2.7,0.33,3.28
				c-0.45,2.34-2.65,2.87-4.7,3.04c-3.95,0.32-7.71,1.35-11.11,3.43c-6.92,4.23-11.22,11.94-11.2,20.06
				c0.01,3.22,0.2,7.42,2.23,10.07c1.93,2.53,5.43,3.83,8.54,3.8c3.36-0.04,5.89-1.68,7.34-4.68c1.2-2.5,1.72-5.93,0.24-8.47
				c-0.74-1.28-2.22-1.6-3.6-1.62c-0.71-0.01-1.56,0.32-2.24,0.23c-0.51-0.07-0.76-0.72-0.96-1.18c-0.12-0.27-0.28-0.62-0.33-0.9
				c-0.07-0.42-0.19-0.26,0.19-0.65c0.73-0.73,1.74-1.13,2.72-1.38c2.24-0.59,4.63-0.96,6.95-1.05c2.21-0.09,3.73,0.6,4.31,2.83
				c0.54,2.08,0.54,4.35,0.47,6.48c-0.07,2.39-0.32,4.78-0.52,7.16c-0.18,2.15-0.48,4.26-1.16,6.32c-1.32,3.99-4,7.33-7.82,9.16
				c-3.61,1.73-8.05,1.58-11.77,0.27c-3.92-1.39-7.86-4.1-9.5-8.05c-0.85-2.05-1.36-4.28-1.87-6.43c-0.56-2.38-1-4.79-1.21-7.22
				c-0.79-9.13,2.08-17.87,6.83-25.58c2.06-3.34,4.55-6.34,8.35-7.71c4.08-1.47,8.47-1.34,12.73-1.23c2.25,0.06,4.5,0.11,6.75,0.02
				C491.75,356.62,491.75,354.12,490.14,354.18L490.14,354.18z"/>
		</g>
	</g>
	<g>
		<path class="st0" d="M508.62,389.23c2.05-0.62,4.31-0.53,6.31,0.24c0.67,0.26,1.45,0.59,2.06,0.2c0.47-0.3,0.61-0.9,0.71-1.45
			c1.08-6.04,1.19-12.26,0.33-18.33c-0.12-0.84-0.37-1.82-1.17-2.12c-0.68-0.25-1.46,0.16-1.87,0.76c-0.41,0.6-0.53,1.34-0.67,2.05
			c-0.96,5.15-2.76,10.14-5.32,14.71c-0.32,0.57-0.66,1.15-0.76,1.79C508.14,387.73,508.07,388.87,508.62,389.23"/>
		<g>
			<path d="M508.95,390.43c2.2-0.61,4.05-0.25,6.16,0.43c1.95,0.63,3.4-0.38,3.78-2.31c0.89-4.46,1.11-9.13,0.86-13.67
				c-0.11-2.02-0.1-4.39-0.76-6.32c-0.58-1.69-2.27-2.67-3.95-1.74c-1.77,0.98-1.86,3.22-2.25,4.97c-0.48,2.17-1.11,4.31-1.88,6.4
				c-0.83,2.24-1.86,4.38-3,6.47c-0.84,1.53-1.73,4.03-0.18,5.45c1.18,1.09,2.95-0.67,1.77-1.77c-0.23-0.22-0.05-1.03,0.03-1.31
				c0.24-0.81,0.81-1.57,1.2-2.32c0.78-1.49,1.47-3.02,2.1-4.58c1.23-3.04,2.1-6.19,2.73-9.4c0.07-0.34,0.25-1.83,0.81-1.77
				c0.4,0.04,0.48,1.46,0.51,1.76c0.23,1.8,0.37,3.61,0.43,5.42c0.12,3.51-0.08,7.04-0.62,10.51c-0.07,0.46-0.13,0.92-0.24,1.38
				c-0.03,0.12-0.03,0.31-0.1,0.41c-0.18,0.3,0.1,0.12-0.22,0.12c-0.78,0-1.73-0.61-2.52-0.76c-1.79-0.35-3.59-0.26-5.34,0.23
				C506.74,388.45,507.4,390.87,508.95,390.43L508.95,390.43z"/>
		</g>
	</g>
	<g>
		<path class="st0" d="M541.68,420.56c-4.92-2.06-7.98-5.02-8.89-10.29c-0.91-5.26-0.02-12.9,0.84-18.16
			c0.92-5.63,1.85-11.25,2.77-16.88c0.86-5.25,1.06-12.64,4.24-16.91c1.4-1.88,4.15-1.51,6.61-1.23c1.51,0.18,3.87,0.95,4.05,2.41
			c0.19,1.51,0.49,3.18,0.81,4.67c1.91,8.76,4.38,16.98,6.29,25.75c1.25-9.66,1.95-18.78,3.2-28.44c0.46-3.52,0.21-8.02,2.65-10.69
			c1.2-1.32,5.43-1.23,7.21-1.34c3.69-0.22,4.34,2.36,3.92,5.33c-0.25,1.77-0.15,3.57-0.48,5.33c-3.04,16.37-5.19,30.15-8.23,46.52
			c-0.43,2.32-1.01,6.57-0.03,8.71c1,2.2,4.37,3.71,6.91,4.82c0.35,0.15,0.3,0.66-0.07,0.74c-2.83,0.61-6.97,1.44-9.39,1.29
			c-2.79-0.18-5.64-1.25-7.37-3.45c-1.92-2.45-3.51-13.32-4.63-16.64c-3.12-9.26-1.79-12.25-6.36-21.06
			c-0.07-0.13-0.26-0.09-0.25,0.06C546,394.06,544.24,407.89,541.68,420.56"/>
		<g>
			<path d="M542.31,419.48c-2.56-1.09-5.07-2.55-6.61-4.94c-1.63-2.52-1.96-5.55-2.03-8.48c-0.17-7.34,1.33-14.61,2.52-21.81
				c0.61-3.73,1.29-7.46,1.79-11.2c0.42-3.21,0.74-6.45,1.64-9.57c0.42-1.44,0.95-2.89,1.82-4.12c0.88-1.24,2.26-1.3,3.67-1.22
				c1.38,0.08,2.93,0.17,4.17,0.83c0.63,0.34,0.76,0.6,0.86,1.28c0.15,1,0.31,2.01,0.5,3c1.78,9.09,4.56,17.96,6.55,27
				c0.33,1.5,2.29,0.95,2.46-0.33c1.22-9.46,2.04-18.97,3.2-28.44c0.22-1.77,0.26-3.57,0.54-5.33c0.22-1.41,0.6-3.6,1.81-4.55
				c1.03-0.82,2.94-0.75,4.18-0.81c1.17-0.06,2.91-0.42,3.96,0.21c1.03,0.63,0.96,2.14,0.86,3.18c-0.21,2.37-0.34,4.73-0.78,7.08
				c-0.84,4.54-1.64,9.08-2.43,13.62c-1.57,9.03-3.09,18.06-4.72,27.07c-0.71,3.93-1.89,8.18-1.25,12.2
				c0.28,1.77,1.19,3.11,2.59,4.21c0.75,0.59,1.55,1.08,2.39,1.53c0.49,0.26,0.98,0.5,1.48,0.73c0.16,0.08,0.33,0.15,0.49,0.22
				c0.16,0.07,0.32,0.14,0.48,0.21c0.32,0.19,0.33-0.01,0.03-0.6c0.19-0.25,0.38-0.5,0.57-0.75c-0.75,0.44-2.16,0.47-3.01,0.63
				c-1.1,0.21-2.22,0.4-3.33,0.51c-2.05,0.21-4.11,0.14-6.03-0.67c-1.54-0.65-2.9-1.7-3.56-3.26c-0.57-1.34-0.93-2.8-1.28-4.21
				c-0.8-3.2-1.36-6.46-2.19-9.65c-0.48-1.85-1.14-3.64-1.62-5.49c-0.46-1.8-0.81-3.63-1.18-5.45c-0.38-1.92-0.82-3.83-1.45-5.68
				c-0.37-1.09-0.81-2.17-1.27-3.23c-0.42-0.95-0.93-2.82-1.94-3.3c-0.67-0.32-1.27-0.13-1.71,0.45c-0.41,0.54-0.25,1.28-0.23,1.91
				c0.03,0.84,0.04,1.69,0.05,2.53c0.01,1.71-0.01,3.41-0.06,5.12c-0.11,3.37-0.34,6.74-0.67,10.1c-0.67,6.79-1.76,13.54-3.11,20.23
				c-0.32,1.57,2.09,2.24,2.41,0.66c1.31-6.52,2.38-13.1,3.08-19.72c0.35-3.28,0.6-6.57,0.74-9.87c0.07-1.71,0.11-3.42,0.12-5.13
				c0-0.77,0-1.54-0.01-2.31c-0.01-0.46-0.02-0.92-0.03-1.38c0-0.14,0.03-1.08-0.12-0.87c-0.57,0.15-1.14,0.3-1.71,0.45
				c0.13,0.06,0.72,1.7,0.87,2.03c0.32,0.72,0.62,1.44,0.9,2.18c0.49,1.31,0.88,2.66,1.21,4.02c0.61,2.57,1.02,5.19,1.66,7.75
				c0.62,2.47,1.5,4.85,2.06,7.33c0.56,2.46,1.05,4.94,1.64,7.4c0.49,2.03,0.97,4.25,2.01,6.09c1.38,2.43,4.27,3.87,6.93,4.36
				c3.02,0.56,6.09-0.01,9.06-0.58c1.16-0.23,3.1-0.23,3.6-1.52c0.65-1.65-1.17-2.2-2.31-2.74c-1.3-0.61-2.65-1.26-3.73-2.22
				c-1.09-0.96-1.42-2.08-1.48-3.5c-0.14-3.22,0.65-6.42,1.22-9.57c1.39-7.66,2.7-15.33,4.02-23c0.66-3.83,1.33-7.66,2.01-11.49
				c0.7-3.95,1.59-7.87,1.83-11.87c0.15-2.43,0.9-5.42-1.12-7.33c-1.78-1.69-4.67-1.22-6.9-1.05c-1.37,0.1-2.86,0.23-4.1,0.87
				c-1.28,0.66-2.05,2.01-2.57,3.3c-1.31,3.24-1.17,7.01-1.6,10.43c-1.12,8.98-1.86,18-3.02,26.97c0.82-0.11,1.64-0.22,2.46-0.33
				c-1.97-8.97-4.71-17.78-6.51-26.79c-0.31-1.56-0.19-3.73-1.28-4.99c-0.97-1.11-2.54-1.65-3.96-1.88
				c-3.12-0.51-6.62-0.75-8.58,2.16c-1.94,2.88-2.63,6.49-3.14,9.86c-0.56,3.77-1.04,7.53-1.66,11.29
				c-1.35,8.2-3.15,16.49-3.32,24.82c-0.07,3.74,0.13,7.73,1.98,11.08c1.72,3.11,4.7,5.13,7.9,6.5
				C542.51,422.27,543.79,420.11,542.31,419.48L542.31,419.48z"/>
		</g>
	</g>
	<g>
		<g>
			<path class="st0" d="M191.99,357.93c-0.85,20.02-4.1,40.61-9.38,59.94c3.05,2.02,5.28,1.15,8.92,0.78
				c3.62-0.37,3.68-1.39,4.96-5.01c0.65-1.83,1.37-4.68,1.6-6.89c0.27-2.5-0.02-10.78,2.01-10.3c2.51,0.6,4.71,0.8,6.71,1.64
				c-0.89,8.49,2.35,18.24,8.83,23.79c6.48,5.55,14.92,8.41,23.39,9.5s17.04,0.53,25.56-0.03c13.25-0.87,26.5-1.74,39.75-2.61
				c2.81-0.18,5.67-0.38,8.31-1.38c2.64-1,5.06-2.94,5.94-5.62c-14.3-0.67-28.64-0.6-42.93,0.21c-8.3,0.47-16.62,1.18-24.9,0.49
				s-16.63-2.87-23.4-7.68c-6.77-4.82-11.77-12.55-11.93-20.86c4.2-5.26,9.98-8.78,11.66-15.3s1.18-14.1-4.53-17.67
				c-4.02-2.5-10.82-3-15.75-2.9C202.09,358.12,196.63,358.84,191.99,357.93"/>
			<g>
				<path d="M190.74,357.93c-0.88,20.13-4.05,40.16-9.34,59.6c-0.15,0.55,0.1,1.11,0.57,1.41c3.16,1.99,6.39,1.34,9.89,0.91
					c2.55-0.31,4.09-1.27,5.05-3.69c1.21-3.07,2.16-6.35,2.45-9.65c0.2-2.3,0.1-4.62,0.42-6.91c0.07-0.53,0.16-1.09,0.34-1.6
					c0.01-0.04,0.21-0.47,0.21-0.47c0.05,0.07-0.58,0.17-0.55,0.11c0.02-0.06,3,0.62,3.34,0.69c1.15,0.24,2.28,0.52,3.38,0.95
					c-0.31-0.4-0.61-0.8-0.92-1.21c-0.74,7.57,1.47,15.54,6.19,21.53c5.16,6.54,13.61,10.23,21.55,12.02
					c9.54,2.15,19.39,1.73,29.07,1.11c10.18-0.65,20.35-1.34,30.53-2.01c5.51-0.36,11.19-0.37,16.64-1.28
					c4.39-0.73,8.67-2.99,10.25-7.38c0.29-0.8-0.45-1.55-1.21-1.58c-16.45-0.76-32.85-0.37-49.28,0.58
					c-14.43,0.84-31.09,1.2-42.89-8.61c-5.54-4.6-9.53-11.25-9.74-18.57c-0.12,0.29-0.24,0.59-0.37,0.88
					c2.97-3.67,6.77-6.59,9.47-10.48c2.57-3.71,3.57-8.44,3.38-12.91c-0.18-4.33-1.77-8.56-5.4-11.15
					c-3.75-2.67-8.9-3.22-13.37-3.42c-6-0.27-12.14,1.01-18.09-0.09c-1.57-0.29-2.25,2.12-0.66,2.41
					c6.08,1.13,12.25-0.06,18.38,0.17c4.97,0.18,11.5,0.77,14.58,5.26c2.85,4.15,2.52,10.21,0.95,14.78
					c-1.77,5.17-6.57,8.54-10.04,12.5c-0.36,0.41-0.93,0.92-1.17,1.42c-0.27,0.55-0.16,1.19-0.12,1.78c0.11,1.5,0.35,3,0.74,4.45
					c0.71,2.68,1.88,5.25,3.37,7.59c3.09,4.83,7.52,8.67,12.59,11.31c11.96,6.22,25.78,5.92,38.87,5.15
					c16.27-0.96,32.51-1.3,48.79-0.56c-0.4-0.53-0.8-1.05-1.21-1.58c-1.39,3.88-5.77,5.33-9.49,5.78
					c-4.55,0.55-9.17,0.67-13.74,0.97c-9.52,0.63-19.05,1.25-28.57,1.88c-9.32,0.61-18.81,1.36-28.09-0.13
					c-7.82-1.25-15.93-4.09-21.77-9.63c-5.87-5.57-8.44-14.25-7.66-22.18c0.06-0.58-0.44-1.02-0.92-1.21
					c-1.86-0.74-3.84-1.02-5.79-1.43c-1.09-0.23-2.04-0.49-2.88,0.41c-1.39,1.49-1.31,4.38-1.41,6.26
					c-0.15,2.61-0.19,5.11-0.78,7.68c-0.38,1.63-0.89,3.21-1.45,4.78c-0.29,0.83-0.56,1.9-1.39,2.36c-1.29,0.72-3.26,0.63-4.69,0.81
					c-2.04,0.26-3.73,0.16-5.51-0.96c0.19,0.47,0.38,0.94,0.57,1.41c4.17-15.33,7.01-31.02,8.5-46.83
					c0.42-4.47,0.73-8.95,0.92-13.44C193.31,356.32,190.81,356.33,190.74,357.93L190.74,357.93z"/>
			</g>
		</g>
		<g>
			<path class="st0" d="M202.91,367.59c-0.06,5.09-0.91,11.61-1.96,16.52c2.5,0.09,4.99,0.18,7.49,0.26
				c1.18,0.04,2.46,0.05,3.44-0.8c0.99-0.86,1.45-2.44,1.6-3.96c0.35-3.51,1.16-8.06-0.91-10.42
				C210.5,366.85,205.61,366.75,202.91,367.59"/>
			<g>
				<path d="M201.66,367.59c-0.07,5.43-0.79,10.88-1.91,16.19c-0.17,0.81,0.36,1.55,1.21,1.58c1.74,0.06,3.47,0.12,5.21,0.18
					c1.49,0.05,3.06,0.24,4.53-0.05c3.14-0.63,3.82-3.89,4.11-6.59c0.28-2.55,0.67-5.21,0.08-7.74c-0.57-2.43-2.3-4.02-4.63-4.76
					c-2.41-0.77-5.25-0.74-7.67-0.01c-1.54,0.46-0.88,2.88,0.66,2.41c2.78-0.84,7.98-0.91,9.08,2.49c0.65,2.02,0.34,4.31,0.12,6.38
					c-0.19,1.73-0.11,4.91-2.29,5.39c-1.35,0.3-2.95,0.03-4.32-0.02c-1.63-0.06-3.26-0.11-4.88-0.17c0.4,0.53,0.8,1.05,1.21,1.58
					c1.17-5.52,1.92-11.21,2-16.86C204.18,365.98,201.68,365.98,201.66,367.59L201.66,367.59z"/>
			</g>
		</g>
	</g>
	<g>
		<path class="st0" d="M147.74,354.76c11.57-1.19,23.63-1.61,35.25-0.97c0.74,0.04,1.54,0.11,2.1,0.61
			c0.87,0.78,0.55,4.77,0.13,5.86c-1.79,4.65-6.22,6.03-11.22,6.19c-1.72,0.05-3.44,0.13-5.15,0.17c-5.16,0.14-9.27,4.25-9.47,9.41
			c-0.04,0.95-0.11,1.87-0.22,2.76c4.78,0.01,9.57,0.02,14.35,0.02c2.07,0,6.68,0.03,4.81,3.78c-0.02,0.04,0.02,0.11-0.01,0.15
			c-2.98,4.22-1.62,6.69-6.47,7.96c-2.68,0.71-9.49,0.1-11.79,1.64c-1.41,0.94-2.23,2.58-2.54,4.25s-0.7,5.9-0.57,7.59
			c5.62-0.99,18.41-1.23,24.11-1.03c1.53,0.05,0.7,3.5-0.17,4.76c-3.83,5.57-3.32,6.76-8.68,8.8c-3.58,1.37-10.59,1.57-14.42,1.78
			c-8,0.46-16.07-0.11-23.93-1.69c4.05-3.63,6.61-8.68,8.09-13.91c1.49-5.23,1.98-10.68,2.46-16.09
			C145.36,376.11,146.79,365.43,147.74,354.76"/>
		<g>
			<path d="M147.74,356.01c6.26-0.64,12.54-1.05,18.82-1.2c3.23-0.08,6.47-0.09,9.7-0.02c1.44,0.03,2.89,0.07,4.33,0.13
				c0.8,0.03,1.6,0.05,2.39,0.12c0.35,0.03,1.01-0.02,1.22,0.28c0.38,0.55,0.19,1.87,0.15,2.48c-0.04,0.78-0.12,1.57-0.42,2.3
				c-0.82,1.99-2.5,3.42-4.49,4.16c-4.68,1.74-9.96,0.03-14.56,1.94c-2.22,0.93-4.11,2.58-5.3,4.67c-1.43,2.51-1.35,5.13-1.67,7.9
				c-0.08,0.67,0.64,1.25,1.25,1.25c5.2,0.01,10.47-0.21,15.67,0.05c0.69,0.04,2.5,0.04,2.68,0.92c0.07,0.33-0.2,0.81-0.33,1.1
				c-0.02,0.05-0.04,0.1-0.06,0.15c0,0.38-0.03,0.44-0.1,0.18c-0.12,0.21-0.27,0.41-0.39,0.62c-0.48,0.8-0.87,1.65-1.23,2.52
				c-0.51,1.22-0.9,2.54-2.1,3.25c-1.42,0.83-3.1,0.92-4.71,1.01c-3.28,0.18-7.74-0.25-10.23,2.33c-1.57,1.62-2.04,3.77-2.31,5.93
				c-0.25,2-0.47,4.07-0.35,6.09c0.05,0.87,0.75,1.35,1.58,1.21c4.6-0.79,9.36-0.87,14.02-0.99c2.4-0.06,4.81-0.08,7.21-0.06
				c0.53,0.01,1.07,0.01,1.6,0.03c0.12,0,0.39,0.05,0.49,0.01c0.61-0.22,0.02,0.4,0.01-0.27c0.01,0.9-0.08,1.73-0.47,2.57
				c-0.5,1.08-1.33,2.07-1.96,3.08c-0.52,0.82-1.01,1.67-1.56,2.46c-0.97,1.39-2.25,2.23-3.79,2.9c-4.55,1.97-9.89,1.84-14.76,2.1
				c-8.01,0.43-16-0.07-23.87-1.63c0.18,0.7,0.37,1.39,0.55,2.09c5.87-5.36,8.56-13.11,9.77-20.78c0.69-4.33,1-8.7,1.42-13.06
				c0.44-4.52,0.95-9.04,1.45-13.55c0.58-5.17,1.15-10.34,1.61-15.52c0.14-1.6-2.36-1.59-2.5,0c-0.79,8.72-1.87,17.41-2.77,26.12
				c-0.85,8.29-1.03,16.9-4.01,24.78c-1.47,3.88-3.68,7.45-6.75,10.25c-0.67,0.61-0.36,1.91,0.55,2.09
				c7.82,1.55,15.81,2.17,23.78,1.76c5.46-0.28,11.37-0.18,16.48-2.36c1.91-0.81,3.49-1.88,4.73-3.56c0.6-0.82,1.11-1.7,1.65-2.55
				c0.74-1.18,1.66-2.31,2.23-3.58c0.71-1.58,1.56-4.86-0.67-5.68c-0.87-0.32-2.03-0.17-2.95-0.18c-1.34-0.02-2.68-0.02-4.02,0
				c-6.02,0.05-12.2,0.11-18.15,1.13c0.53,0.4,1.05,0.8,1.58,1.21c-0.12-1.92,0.09-3.88,0.31-5.78c0.22-1.88,0.65-4.25,2.54-5.18
				c1.59-0.77,3.71-0.71,5.43-0.79c1.82-0.09,3.72-0.07,5.51-0.47c1.67-0.37,3.3-1.16,4.32-2.57c0.94-1.3,1.32-2.93,2.07-4.33
				c0.25-0.47,0.53-0.91,0.81-1.36c0.15-0.24,0.24-0.38,0.35-0.62c0.39-0.9-0.09,0.23,0.09-0.31c0.28-0.83,0.54-1.62,0.31-2.5
				c-0.4-1.49-1.86-2.21-3.26-2.48c-2.15-0.41-4.43-0.23-6.61-0.24c-3.63-0.01-7.26-0.01-10.89-0.02c0.42,0.42,0.83,0.83,1.25,1.25
				c0.32-2.68,0.2-5.19,1.86-7.47c1.35-1.84,3.44-3.08,5.7-3.38c5.04-0.67,10.53,0.5,14.95-2.7c3.15-2.28,4.89-6.74,3.69-10.56
				c-0.81-2.59-4.37-2.17-6.5-2.25c-3.22-0.13-6.44-0.18-9.67-0.15c-7.59,0.05-15.16,0.5-22.71,1.26
				C146.16,353.67,146.14,356.17,147.74,356.01L147.74,356.01z"/>
		</g>
	</g>
	<g>
		<path class="st0" d="M239.19,330.59c16.04-1.56,32.76-2.12,48.86-1.29c1.03,0.05,2.14,0.14,2.9,0.8c1.2,1.03,0.77,6.29,0.19,7.73
			c-2.49,6.13-8.62,7.96-15.56,8.16c-2.38,0.07-4.76,0.17-7.14,0.23c-7.15,0.18-12.85,5.61-13.13,12.41l0,0
			c-0.08,1.99,1.51,3.64,3.5,3.65l16.09,0.03c2.87,0,9.26,0.04,6.67,4.99c-0.03,0.06,0.03,0.15-0.01,0.2
			c-4.13,5.56-2.25,8.82-8.97,10.5c-3.72,0.93-13.15,0.13-16.34,2.17c-1.95,1.25-3.08,3.41-3.52,5.6c-0.25,1.25-0.53,3.61-0.69,5.81
			c-0.16,2.14,1.66,3.91,3.79,3.69c8.76-0.88,22.76-1.09,29.53-0.86c2.12,0.07,0.97,4.62-0.24,6.28c-5.31,7.35-4.6,8.92-12.03,11.61
			c-4.97,1.8-14.68,2.07-19.98,2.35c-4.7,0.26-9.41,0.27-14.11,0.04c-7.74-0.38-12.68-8.42-9.66-15.56c0.7-1.65,1.3-3.35,1.81-5.06
			c2.06-6.9,2.74-14.09,3.41-21.23C235.89,358.76,237.87,344.67,239.19,330.59"/>
		<g>
			<path d="M239.19,331.84c8.36-0.81,16.74-1.34,25.14-1.56c4.21-0.11,8.43-0.14,12.64-0.08c2.09,0.03,4.19,0.08,6.28,0.15
				c1.93,0.07,4.14-0.12,6.02,0.34c1.22,0.29,1.17,1.27,1.2,2.4c0.03,1.13-0.03,2.3-0.26,3.41c-0.5,2.49-2.41,4.63-4.55,5.9
				c-5.9,3.5-13.05,1.75-19.48,2.8c-5.66,0.92-10.57,5.29-11.8,10.95c-0.6,2.74-0.33,5.8,2.62,7.02c1.16,0.48,2.43,0.37,3.66,0.37
				c3.86,0.01,7.72,0.01,11.59,0.02c0.95,0,1.89,0,2.84,0c1.61,0.01,4.04-0.17,5.39,0.88c0.67,0.52,0.45,1.22,0.16,1.93
				c-0.1,0.25-0.19,0.73-0.32,0.93c0,0-0.16,0.23-0.04-0.01c0.15-0.29-0.26,0.21-0.25,0.2c-0.51,0.52-0.88,1.38-1.21,2.02
				c-0.92,1.76-1.41,4.03-2.82,5.48c-1.59,1.63-4.18,2-6.35,2.16c-2.79,0.21-5.59,0.2-8.37,0.49c-2.45,0.25-4.94,0.63-6.83,2.34
				c-2.39,2.17-3,5.29-3.36,8.34c-0.36,3-0.77,6.53,2.66,7.89c1.35,0.53,2.76,0.25,4.17,0.13c1.54-0.13,3.07-0.23,4.61-0.31
				c6.36-0.35,12.73-0.49,19.1-0.43c1.2,0.01,2.41-0.01,3.6,0.07c0.23,0.02-0.03-0.06-0.06-0.11c0.06,0.13,0.09,0.27,0.1,0.41
				c0.05,0.58-0.06,1.17-0.21,1.73c-0.66,2.55-2.65,4.67-4.06,6.84c-1.02,1.56-2.03,3.19-3.57,4.3c-1.91,1.39-4.32,2.27-6.6,2.83
				c-5.76,1.42-11.84,1.43-17.73,1.74c-4.21,0.22-8.43,0.26-12.65,0.1c-3.09-0.12-5.82-0.79-8.02-3.1c-1.88-1.98-2.86-4.68-2.73-7.4
				c0.07-1.56,0.61-2.94,1.19-4.37c0.73-1.83,1.35-3.71,1.86-5.61c2.16-7.94,2.64-16.2,3.47-24.35c0.87-8.53,1.94-17.03,2.9-25.55
				c0.47-4.17,0.92-8.35,1.32-12.53c0.15-1.6-2.35-1.59-2.5,0c-0.83,8.78-1.9,17.53-2.92,26.29c-1.02,8.76-1.59,17.61-2.85,26.34
				c-0.6,4.14-1.43,8.26-2.77,12.23c-1.07,3.19-2.54,6-2.13,9.47c0.68,5.83,5.36,10.44,11.21,10.99c7.3,0.69,14.84,0.09,22.15-0.41
				c5.84-0.4,12.04-0.91,17.2-3.94c1.74-1.02,3.05-2.42,4.2-4.07c0.71-1.01,1.36-2.05,2.03-3.08c0.82-1.24,1.84-2.43,2.53-3.75
				c0.92-1.75,1.97-4.9,0.52-6.65c-0.74-0.9-1.83-0.85-2.9-0.88c-1.34-0.03-2.68-0.05-4.02-0.05c-6.68-0.02-13.37,0.13-20.03,0.59
				c-2.35,0.16-7.1,1.5-6.87-2.31c0.2-3.27,0.35-7.5,3.09-9.75c1.87-1.53,4.88-1.51,7.16-1.65c2.76-0.17,5.55-0.13,8.29-0.54
				c2.33-0.35,4.83-1.26,6.35-3.14c1.4-1.73,1.95-3.99,3.01-5.91c0.37-0.66,0.79-1.28,1.21-1.91c0.25-0.37,0.26-0.58,0.4-0.99
				c0.06-0.17-0.02,0.2-0.01,0.18c0.07-0.2,0.18-0.39,0.25-0.58c0.41-1.05,0.55-2.25,0.04-3.29c-0.95-1.93-3.34-2.39-5.27-2.59
				c-2.92-0.3-5.94-0.12-8.86-0.12c-3.34-0.01-6.74,0.16-10.08-0.02c-3.24-0.17-2.31-4.11-1.51-6.1c1.08-2.69,3.19-4.85,5.77-6.15
				c3.26-1.64,7-1.35,10.54-1.47c3.32-0.11,6.68-0.22,9.87-1.26c2.68-0.87,5.16-2.33,6.91-4.57c1.67-2.13,2.35-4.4,2.49-7.07
				c0.12-2.48-0.01-5.31-2.83-6.08c-1.79-0.49-3.82-0.36-5.66-0.43c-2.17-0.08-4.34-0.14-6.52-0.18
				c-8.75-0.15-17.51,0.08-26.25,0.63c-4.17,0.26-8.34,0.6-12.5,1C237.61,329.49,237.59,332,239.19,331.84L239.19,331.84z"/>
		</g>
	</g>
	<g>
		<path class="st0" d="M374.75,348.86c11.62-0.51,23.69-0.22,35.24,1.09c0.74,0.08,1.53,0.2,2.06,0.73c0.82,0.83,0.27,4.8-0.21,5.85
			c-2.06,4.54-6.56,5.66-11.57,5.52c-1.72-0.05-3.44-0.08-5.15-0.13c-5.16-0.17-9.5,3.7-10,8.84c-0.09,0.95-0.21,1.86-0.38,2.74
			c4.77,0.29,9.55,0.58,14.32,0.87c2.06,0.12,6.67,0.42,4.58,4.06c-0.02,0.04,0.01,0.11-0.02,0.15c-3.22,4.04-2.01,6.58-6.93,7.57
			c-2.72,0.55-9.48-0.46-11.87,0.95c-1.46,0.86-2.37,2.45-2.79,4.09c-0.41,1.64-1.04,5.85-1.01,7.54
			c5.66-0.66,18.45-0.15,24.13,0.38c1.52,0.14,0.49,3.53-0.45,4.74c-4.15,5.33-3.71,6.55-9.18,8.28
			c-3.66,1.15-10.66,0.94-14.49,0.94c-5.96-0.01-11.91-0.59-17.76-1.72c-2.52-0.49-3.59-3.44-2.02-5.48
			c2.13-2.77,3.73-5.99,4.89-9.31c1.79-5.13,2.6-10.55,3.4-15.92C371.12,370.04,373.17,359.46,374.75,348.86"/>
		<g>
			<path d="M374.75,350.11c6.28-0.27,12.58-0.31,18.86-0.1c3.07,0.11,6.14,0.27,9.2,0.51c1.6,0.12,3.2,0.26,4.8,0.43
				c0.64,0.06,1.27,0.13,1.91,0.2c0.35,0.04,0.73,0.06,1.07,0.16c0.21,0.04,0.4,0.12,0.58,0.25c-0.11-0.19-0.11-0.17-0.03,0.06
				c0.46,1.22-0.01,3.45-0.53,4.6c-0.89,1.96-2.67,3.3-4.68,3.94c-2.3,0.73-4.68,0.65-7.06,0.6c-2.47-0.06-5.04-0.35-7.43,0.43
				c-2.3,0.75-4.28,2.25-5.66,4.23c-1.67,2.38-1.75,4.98-2.24,7.74c-0.15,0.83,0.34,1.53,1.21,1.58c4.83,0.29,9.67,0.56,14.5,0.88
				c0.99,0.07,2.12,0.1,3.04,0.53c1.2,0.56,0.22,1.42,0.1,2.42c0.12-0.29,0.24-0.59,0.37-0.88c-1.04,1.33-1.82,2.73-2.55,4.24
				c-0.49,1.01-0.96,1.93-2.01,2.45c-2.69,1.33-6.3,0.59-9.18,0.68c-1.38,0.05-2.84,0.13-4.13,0.64c-1.69,0.67-2.88,2.18-3.57,3.81
				c-0.59,1.4-0.81,2.92-1.04,4.42c-0.24,1.58-0.49,3.19-0.48,4.8c0,0.62,0.57,1.33,1.25,1.25c3.57-0.4,7.21-0.35,10.8-0.28
				c3.83,0.07,7.66,0.22,11.48,0.51c0.34,0.03,0.69,0.05,1.03,0.08c0.13,0.01,0.36,0.09,0.48,0.04c0.29-0.13-0.17,0-0.15-0.21
				c-0.07,0.73-0.14,1.37-0.44,2.06c-0.69,1.61-2.08,3.03-3.1,4.46c-0.7,0.99-1.41,2.02-2.41,2.73c-1.3,0.92-2.95,1.46-4.49,1.82
				c-3.9,0.89-8.09,0.67-12.06,0.64c-5.44-0.04-10.83-0.36-16.2-1.25c-1.65-0.28-4.43-0.4-4.21-2.77c0.09-0.98,0.93-1.77,1.46-2.54
				c0.75-1.09,1.41-2.23,2.01-3.4c2.38-4.66,3.66-9.76,4.56-14.89c1.09-6.22,1.95-12.48,3.01-18.7c1.08-6.35,2.2-12.7,3.15-19.07
				c0.24-1.57-2.17-2.25-2.41-0.66c-0.94,6.29-2.04,12.55-3.11,18.82c-1.05,6.15-1.91,12.34-2.97,18.49
				c-0.98,5.71-2.37,11.46-5.34,16.49c-1.13,1.92-3.04,3.64-2.84,6.04c0.16,2,1.57,3.63,3.5,4.15c2.91,0.78,6.09,1.04,9.09,1.34
				c3.05,0.3,6.1,0.45,9.16,0.46c4.36,0.02,8.81,0.21,13.12-0.57c3.43-0.62,6.37-2.09,8.46-4.9c1.16-1.56,2.5-3.16,3.48-4.83
				c0.78-1.34,1.57-3.54,0.8-5.04c-0.81-1.57-3.36-1.26-4.86-1.36c-2.38-0.16-4.77-0.27-7.16-0.34c-4.59-0.15-9.27-0.31-13.85,0.21
				c0.42,0.42,0.83,0.83,1.25,1.25c0-1.91,0.31-3.85,0.66-5.72c0.34-1.85,0.88-4.14,2.8-4.97c1.65-0.71,3.82-0.5,5.57-0.48
				c1.83,0.02,3.71,0.15,5.52-0.16c1.65-0.28,3.29-0.95,4.37-2.27c1.04-1.27,1.53-2.9,2.38-4.29c0.29-0.47,0.63-0.9,0.93-1.36
				c0.14-0.21,0.21-0.34,0.32-0.55c0.42-0.82-0.08,0.19,0.12-0.29c0.33-0.81,0.61-1.61,0.4-2.49c-0.35-1.5-1.77-2.27-3.16-2.62
				c-2.12-0.53-4.43-0.47-6.58-0.61c-3.62-0.22-7.24-0.44-10.87-0.66c0.4,0.53,0.8,1.05,1.21,1.58c0.47-2.63,0.47-5.22,2.18-7.42
				c1.43-1.83,3.63-3.04,5.95-3.22c5.04-0.39,10.35,1.08,14.98-1.7c1.83-1.1,3.43-2.89,4.1-4.93c0.54-1.65,0.85-3.9,0.39-5.6
				c-0.67-2.47-3.91-2.31-5.94-2.51c-3.37-0.34-6.74-0.59-10.12-0.77c-7.58-0.39-15.17-0.39-22.75-0.07
				C373.15,347.67,373.14,350.17,374.75,350.11L374.75,350.11z"/>
		</g>
	</g>
	<g>
		<g>
			<path class="st0" d="M415.74,351.37c-1.08,20.45-3.82,40.81-8.19,60.81c3.47,0.24,6.05,0.83,9.54-0.04
				c2.87-0.72,3.83-3.82,4.5-6.7c0.67-2.88,1.13-5.28,0.99-8.23c-0.07-1.5,0.53-5.26,1.24-6.57c0.72-1.32,4.8-0.18,6.16,0.45
				c1.79,0.83,0.06,3.74,0.05,5.71c-0.06,7.84,4.87,15.09,11.28,19.6c6.41,4.52,14.15,6.7,21.82,8.34c3.06,0.65,6.2,1.23,9.32,0.87
				s6.24-1.81,7.94-4.44c-14.42-1.65-28.07-9.27-37.05-20.69c-2.49-3.17-4.73-7.2-3.59-11.06c1.19-4.02,5.46-6.12,8.43-9.08
				c5.21-5.19,6.29-14.03,2.48-20.32c-3.3-5.46-9.57-8.59-15.87-9.57c-6.3-0.98-12.73-0.08-19.04,0.9"/>
			<g>
				<path d="M414.49,351.37c-1.09,20.34-3.81,40.57-8.15,60.48c-0.18,0.84,0.37,1.52,1.21,1.58c3.64,0.27,8.52,1.33,11.75-0.97
					c2.82-2.01,3.47-6.15,4.06-9.31c0.65-3.48,0.2-7,1.07-10.44c0.08-0.33,0.18-0.67,0.29-0.99c0.06-0.17,0.29-0.48,0.12-0.37
					c0.44-0.27,1.33-0.05,1.8,0.03c0.67,0.12,1.34,0.29,1.98,0.51c0.56,0.18,0.85,0.17,0.93,0.74c0.1,0.65-0.3,1.52-0.44,2.14
					c-0.19,0.8-0.32,1.59-0.31,2.41c0.01,1.88,0.32,3.79,0.85,5.59c1.04,3.54,2.95,6.77,5.34,9.56c5.39,6.29,13.2,9.78,21.03,11.97
					c7.85,2.19,19.85,5.76,25.47-2.5c0.59-0.87-0.23-1.78-1.08-1.88c-8.43-1-16.55-4.07-23.62-8.76c-3.51-2.33-6.73-5.06-9.61-8.14
					c-2.87-3.07-6.55-7.11-6.46-11.59c0.08-4.07,4.02-6.45,6.8-8.79c2.92-2.45,5.05-5.57,6.04-9.28c2.09-7.82-1.12-15.65-7.78-20.1
					c-8.99-6.01-20.23-4.69-30.33-3.12c-1.59,0.25-0.91,2.66,0.66,2.41c9.15-1.42,19.3-2.7,27.62,2.37
					c3.38,2.06,6.17,5.14,7.32,8.99c1.09,3.64,0.83,7.69-0.73,11.16c-1.64,3.67-4.67,5.76-7.62,8.3c-3.02,2.6-5.03,5.88-4.32,10
					c0.73,4.26,3.8,7.89,6.63,10.99c2.8,3.07,5.97,5.81,9.38,8.19c7.7,5.39,16.69,8.77,26.02,9.87c-0.36-0.63-0.72-1.25-1.08-1.88
					c-2.28,3.35-6.59,4.14-10.37,3.87c-4.26-0.3-8.6-1.48-12.7-2.65c-7.72-2.2-15.4-5.75-20.38-12.29c-2.22-2.91-3.86-6.33-4.4-9.97
					c-0.26-1.72-0.16-3.21,0.25-4.88c0.32-1.32,0.66-2.93-0.35-4.05c-0.78-0.87-2.24-1.19-3.33-1.45c-1.26-0.3-2.73-0.57-3.99-0.14
					c-1.23,0.42-1.63,1.61-1.95,2.76c-0.41,1.5-0.67,3.08-0.75,4.63c-0.11,2.14-0.03,4.19-0.44,6.32c-0.37,1.94-0.73,4.05-1.6,5.83
					c-0.97,2.02-2.53,2.58-4.69,2.76c-2.36,0.2-4.72-0.19-7.07-0.36c0.4,0.53,0.8,1.05,1.21,1.58c4.38-20.12,7.14-40.58,8.24-61.14
					C417.08,349.76,414.58,349.77,414.49,351.37L414.49,351.37z"/>
			</g>
		</g>
		<g>
			<g>
				<path class="st0" d="M425.44,379.05c2.5,0.09,4.99,0.18,7.49,0.26c1.18,0.04,2.46,0.05,3.44-0.8c0.99-0.86,1.45-2.44,1.6-3.96
					c0.35-3.51,1.16-8.06-0.91-10.42c-2.07-2.36-6.97-2.46-9.66-1.61"/>
				<g>
					<path d="M425.44,380.3c1.74,0.06,3.47,0.12,5.21,0.18c1.49,0.05,3.06,0.24,4.53-0.05c3.14-0.63,3.82-3.89,4.11-6.59
						c0.28-2.55,0.67-5.21,0.08-7.74c-0.57-2.43-2.3-4.02-4.63-4.76c-2.41-0.77-5.25-0.74-7.67-0.01c-1.54,0.46-0.88,2.88,0.66,2.41
						c2.78-0.84,7.98-0.91,9.08,2.49c0.65,2.02,0.34,4.31,0.12,6.38c-0.19,1.73-0.11,4.91-2.29,5.39c-1.35,0.3-2.95,0.03-4.32-0.02
						c-1.63-0.06-3.26-0.11-4.88-0.17C423.83,377.74,423.83,380.24,425.44,380.3L425.44,380.3z"/>
				</g>
			</g>
			<g>
				<path class="st0" d="M427.39,362.53c-0.06,5.09-0.91,11.61-1.96,16.52"/>
				<g>
					<path d="M426.14,362.53c-0.07,5.43-0.79,10.88-1.91,16.19c-0.33,1.57,2.08,2.24,2.41,0.66c1.17-5.52,1.92-11.21,2-16.86
						C428.66,360.92,426.16,360.92,426.14,362.53L426.14,362.53z"/>
				</g>
			</g>
		</g>
	</g>
</g>
<g id="Layer_2">
</g>
</svg>
